<svg width="24" height="24" viewBox="0 0 24 24" fill="none" xmlns="http://www.w3.org/2000/svg">
<g clip-path="url(#clip0)">
<path d="M4.98812 11.4266C4.98809 11.2926 5.01454 11.1599 5.06594 11.0361C5.11734 10.9123 5.19268 10.7999 5.28764 10.7054C5.38259 10.6108 5.49528 10.536 5.61924 10.4851C5.7432 10.4342 5.87598 10.4084 6.00996 10.409L7.70407 10.4145C7.97419 10.4145 8.23325 10.5219 8.42425 10.713C8.61526 10.904 8.72256 11.1632 8.72256 11.4334V17.8417C8.9134 17.7852 9.15816 17.7249 9.42629 17.6619C9.61245 17.6181 9.77837 17.5126 9.89713 17.3627C10.0159 17.2127 10.0805 17.027 10.0806 16.8357V8.88671C10.0806 8.75289 10.1069 8.62038 10.1581 8.49674C10.2093 8.37311 10.2843 8.26077 10.3789 8.16613C10.4735 8.0715 10.5858 7.99643 10.7093 7.94521C10.8329 7.89399 10.9654 7.86762 11.0992 7.86761H12.7966C13.0667 7.86765 13.3258 7.97501 13.5168 8.16608C13.7077 8.35714 13.8151 8.61626 13.8151 8.88647V16.2644C13.8151 16.2644 14.2399 16.0923 14.654 15.9175C14.8078 15.8524 14.939 15.7435 15.0313 15.6043C15.1236 15.4652 15.1729 15.3019 15.173 15.1349V6.33912C15.173 6.20533 15.1994 6.07284 15.2505 5.94923C15.3017 5.82562 15.3767 5.7133 15.4713 5.61869C15.5659 5.52408 15.6781 5.44903 15.8017 5.39783C15.9253 5.34662 16.0577 5.32027 16.1915 5.32027H17.8889C18.159 5.32027 18.4181 5.42761 18.6091 5.61868C18.8001 5.80975 18.9075 6.0689 18.9075 6.33912V13.5819C20.3792 12.515 21.8707 11.2317 23.0543 9.68867C23.226 9.46469 23.3396 9.20167 23.385 8.92307C23.4304 8.64448 23.4062 8.35897 23.3145 8.09203C22.5136 5.75727 21.0114 3.72694 19.0133 2.27866C17.0151 0.830387 14.6186 0.034855 12.1513 0.000843759C5.49814 -0.0885625 -0.000351852 5.34438 0.000301709 12.0007C-0.00623089 14.107 0.54331 16.1777 1.59336 18.0034C1.73817 18.2531 1.95121 18.4563 2.20745 18.5891C2.46369 18.7218 2.75249 18.7787 3.03993 18.753C3.36108 18.7247 3.76089 18.6848 4.2362 18.629C4.44307 18.6054 4.63407 18.5066 4.7728 18.3513C4.91153 18.1959 4.98832 17.995 4.98852 17.7867V11.4266" fill="#21325B"/>
<path d="M4.95089 21.7042C6.74017 23.0063 8.85466 23.7879 11.0604 23.9625C13.2662 24.1371 15.4772 23.6979 17.4489 22.6934C19.4207 21.689 21.0762 20.1585 22.2323 18.2713C23.3885 16.384 24.0003 14.2136 23.9999 12.0002C23.9999 11.7239 23.9871 11.4507 23.9686 11.179C19.5863 17.7169 11.4949 20.7734 4.95081 21.7045" fill="#979695"/>
</g>
<defs>
<clipPath id="clip0">
<rect width="24" height="24" fill="white"/>
</clipPath>
</defs>
</svg>
