<svg xmlns="http://www.w3.org/2000/svg" width="11.75" height="13.104" viewBox="0 0 11.75 13.104">
  <g id="Group_453" data-name="Group 453" transform="translate(-331.24 -281.302)">
    <path id="Path_923" data-name="Path 923" d="M10471.094,482.25a1.948,1.948,0,1,1,1.948,1.948A1.948,1.948,0,0,1,10471.094,482.25Zm1.948-.885a.885.885,0,1,0,.885.885A.885.885,0,0,0,10473.042,481.365Z" transform="translate(-10132 -199)" fill="#2c3e50" fill-rule="evenodd"/>
    <path id="Path_924" data-name="Path 924" d="M10465.379,485.749a4.064,4.064,0,0,1,2-.488.531.531,0,1,1-.018,1.062,3.01,3.01,0,1,0,2.378,4.786.531.531,0,0,1,.857.628,4.073,4.073,0,1,1-5.223-5.988Z" transform="translate(-10132 -199)" fill="#2c3e50" fill-rule="evenodd"/>
    <path id="Path_925" data-name="Path 925" d="M10467.954,482.443a.531.531,0,0,1,.448.09l2.833,2.125a.533.533,0,0,1,.137.7l-1.642,2.737h1.895a.531.531,0,0,1,.415.2l2.833,3.542a.531.531,0,0,1-.83.664l-2.673-3.343h-2.578a.531.531,0,0,1-.456-.8l1.879-3.131-2.248-1.686-2.588.647a.531.531,0,0,1-.258-1.031Z" transform="translate(-10132 -199)" fill="#2c3e50" fill-rule="evenodd"/>
  </g>
</svg>
