<svg xmlns="http://www.w3.org/2000/svg" width="13.813" height="10.625" viewBox="0 0 13.813 10.625">
  <g id="Group_458" data-name="Group 458" transform="translate(-333.594 -479.365)">
    <path id="Path_946" data-name="Path 946" d="M10467.719,685.625a.532.532,0,0,1,.531-.531h10.625a.531.531,0,1,1,0,1.062h-10.625A.532.532,0,0,1,10467.719,685.625Z" transform="translate(-10132 -199)" fill="#2c3e50" fill-rule="evenodd"/>
    <path id="Path_947" data-name="Path 947" d="M10467.719,688.458a.532.532,0,0,1,.531-.531h10.625a.531.531,0,0,1,0,1.063h-10.625A.532.532,0,0,1,10467.719,688.458Z" transform="translate(-10132 -199)" fill="#2c3e50" fill-rule="evenodd"/>
    <path id="Path_948" data-name="Path 948" d="M10474.094,682.792a.532.532,0,0,1,.531-.532h4.25a.531.531,0,0,1,0,1.063h-4.25A.532.532,0,0,1,10474.094,682.792Z" transform="translate(-10132 -199)" fill="#2c3e50" fill-rule="evenodd"/>
    <path id="Path_949" data-name="Path 949" d="M10474.094,679.958a.532.532,0,0,1,.531-.531h4.25a.531.531,0,0,1,0,1.063h-4.25A.532.532,0,0,1,10474.094,679.958Z" transform="translate(-10132 -199)" fill="#2c3e50" fill-rule="evenodd"/>
    <path id="Path_950" data-name="Path 950" d="M10470.906,681.906v.177a.186.186,0,0,0,.029.1.183.183,0,0,0,.08.065.18.18,0,0,0,.1.01.188.188,0,0,0,.091-.048.18.18,0,0,0,.038-.193.173.173,0,0,0-.065-.08.18.18,0,0,0-.1-.03Zm.886-2.479a.886.886,0,0,0-.886.886v.531h.177a1.239,1.239,0,1,1-1.239,1.239v-1.77a1.947,1.947,0,0,1,1.948-1.948.531.531,0,1,1,0,1.062Z" transform="translate(-10132 -199)" fill="#2c3e50" fill-rule="evenodd"/>
    <path id="Path_951" data-name="Path 951" d="M10466.656,681.906v.177a.186.186,0,0,0,.029.1.183.183,0,0,0,.08.065.18.18,0,0,0,.1.01.188.188,0,0,0,.091-.048.18.18,0,0,0,.038-.193.173.173,0,0,0-.065-.08.18.18,0,0,0-.1-.03Zm.886-2.479a.886.886,0,0,0-.886.886v.531h.177a1.239,1.239,0,1,1-1.239,1.239v-1.77a1.947,1.947,0,0,1,1.948-1.948.531.531,0,1,1,0,1.062Z" transform="translate(-10132 -199)" fill="#2c3e50" fill-rule="evenodd"/>
  </g>
</svg>
