<svg xmlns="http://www.w3.org/2000/svg" width="11.688" height="13.812" viewBox="0 0 11.688 13.812">
  <g id="Group_455" data-name="Group 455" transform="translate(-316.302 -345.594)">
    <path id="Path_928" data-name="Path 928" d="M10451.667,548.135a.532.532,0,0,1,.531.532v4.089l1.327,1.991a.546.546,0,0,1,.073.166l.708,2.833a.531.531,0,0,1-1.03.258l-.687-2.744-1.365-2.049a.525.525,0,0,1-.09-.294v-4.25A.532.532,0,0,1,10451.667,548.135Z" transform="translate(-10132 -199)" fill="#2c3e50" fill-rule="evenodd"/>
    <path id="Path_929" data-name="Path 929" d="M10451.348,548.242a.531.531,0,0,1,.613-.017l2.03,1.353,2.013.336a.531.531,0,1,1-.175,1.048l-2.125-.355a.52.52,0,0,1-.207-.082l-1.812-1.208-2.227,1.67.588,1.762a.531.531,0,1,1-1.008.336l-.709-2.125a.532.532,0,0,1,.186-.593Z" transform="translate(-10132 -199)" fill="#2c3e50" fill-rule="evenodd"/>
    <path id="Path_930" data-name="Path 930" d="M10450.427,545.833a1.24,1.24,0,1,1,1.24,1.24A1.24,1.24,0,0,1,10450.427,545.833Zm1.24-.177a.177.177,0,1,0,.177.177A.177.177,0,0,0,10451.667,545.656Z" transform="translate(-10132 -199)" fill="#2c3e50" fill-rule="evenodd"/>
    <path id="Path_931" data-name="Path 931" d="M10451.2,554.567a.53.53,0,0,1,.237.712l-1.417,2.834a.531.531,0,0,1-.95-.476l1.417-2.833A.531.531,0,0,1,10451.2,554.567Z" transform="translate(-10132 -199)" fill="#2c3e50" fill-rule="evenodd"/>
    <path id="Path_932" data-name="Path 932" d="M10458.4,551.323a.53.53,0,0,0-.531.531v6.021a.532.532,0,0,1-1.063,0v-6.021a1.594,1.594,0,0,1,3.188,0v.354a.532.532,0,1,1-1.063,0v-.354a.531.531,0,0,0-.53-.531Z" transform="translate(-10132 -199)" fill="#2c3e50" fill-rule="evenodd"/>
  </g>
</svg>
