<svg xmlns="http://www.w3.org/2000/svg" width="13.813" height="13.812" viewBox="0 0 13.813 13.812">
  <path id="Path_954" data-name="Path 954" d="M10449.833,646.427a1.24,1.24,0,0,0-1.239,1.24v2.125a1.24,1.24,0,0,0,1.239,1.239h.709a.885.885,0,1,1,0,1.771h-.709a1.24,1.24,0,0,0-1.239,1.24v2.125a1.24,1.24,0,0,0,1.239,1.239h2.125a1.24,1.24,0,0,0,1.24-1.239v-.709a.885.885,0,0,1,1.771,0v.709a1.24,1.24,0,0,0,1.239,1.239h2.125a1.24,1.24,0,0,0,1.24-1.239v-2.125a.18.18,0,0,1,.052-.126.177.177,0,0,1,.125-.051h.708a1.948,1.948,0,1,0,0-3.9h-.708a.177.177,0,0,1-.177-.177v-2.125a1.24,1.24,0,0,0-1.24-1.24h-2.125a.177.177,0,0,1-.177-.177v-.708a1.948,1.948,0,0,0-3.9,0v.708a.175.175,0,0,1-.051.125.182.182,0,0,1-.126.052Zm4.25-1.771a.886.886,0,0,0-.885.886v.708a1.24,1.24,0,0,1-1.24,1.24h-2.125a.177.177,0,0,0-.125.051.18.18,0,0,0-.052.126v2.125a.177.177,0,0,0,.177.177h.709a1.948,1.948,0,0,1,0,3.9h-.709a.177.177,0,0,0-.125.051.18.18,0,0,0-.052.126v2.125a.177.177,0,0,0,.177.177h2.125a.182.182,0,0,0,.126-.052.175.175,0,0,0,.051-.125v-.709a1.948,1.948,0,0,1,3.9,0v.709a.177.177,0,0,0,.177.177h2.125a.182.182,0,0,0,.126-.052.175.175,0,0,0,.051-.125v-2.125a1.24,1.24,0,0,1,1.24-1.24h.708a.885.885,0,0,0,0-1.771h-.708a1.24,1.24,0,0,1-1.24-1.239v-2.125a.174.174,0,0,0-.177-.177h-2.125a1.24,1.24,0,0,1-1.239-1.24v-.708a.887.887,0,0,0-.886-.886Z" transform="translate(-10448.594 -643.594)" fill="#2c3e50" fill-rule="evenodd"/>
</svg>
