<svg xmlns="http://www.w3.org/2000/svg" width="16.42" height="14.117" viewBox="0 0 16.42 14.117">
  <g id="paw" transform="translate(-0.001 -35.905)">
    <g id="Group_460" data-name="Group 460" transform="translate(2.693 42.017)">
      <g id="Group_459" data-name="Group 459" transform="translate(0 0)">
        <path id="Path_1077" data-name="Path 1077" d="M93.395,228.564a4.772,4.772,0,0,0-7.864,0,6.63,6.63,0,0,0-1.586,4.042,1.805,1.805,0,0,0,.588,1.465,2.214,2.214,0,0,0,1.461.429,11.2,11.2,0,0,0,1.932-.244,9.51,9.51,0,0,1,1.538-.205,8.953,8.953,0,0,1,1.411.195c1.261.234,2.69.5,3.516-.187a1.789,1.789,0,0,0,.591-1.453A6.63,6.63,0,0,0,93.395,228.564Zm.379,4.755c-.479.4-1.724.167-2.725-.019a9.474,9.474,0,0,0-1.586-.211,10.09,10.09,0,0,0-1.711.221c-.96.176-2.155.4-2.6.022-.06-.05-.242-.2-.242-.726a5.727,5.727,0,0,1,1.365-3.428,3.82,3.82,0,0,1,6.382,0,5.727,5.727,0,0,1,1.365,3.428C94.019,233.116,93.835,233.269,93.774,233.32Z" transform="translate(-83.945 -226.496)" fill="#2c3e50"/>
      </g>
    </g>
    <g id="Group_462" data-name="Group 462" transform="translate(8.504 35.905)">
      <g id="Group_461" data-name="Group 461" transform="translate(0 0)">
        <path id="Path_1078" data-name="Path 1078" d="M268.893,36.845a1.814,1.814,0,0,0-3.176,0,3.846,3.846,0,0,0,0,4.049,1.813,1.813,0,0,0,3.176,0,3.846,3.846,0,0,0,0-4.049Zm-.8,3.509a.866.866,0,0,1-1.584,0,2.892,2.892,0,0,1,0-2.969.866.866,0,0,1,1.584,0,2.892,2.892,0,0,1,0,2.969Z" transform="translate(-265.141 -35.907)" fill="#2c3e50"/>
      </g>
    </g>
    <g id="Group_464" data-name="Group 464" transform="translate(3.59 35.905)">
      <g id="Group_463" data-name="Group 463" transform="translate(0 0)">
        <path id="Path_1079" data-name="Path 1079" d="M115.668,36.843a1.814,1.814,0,0,0-3.176,0,3.847,3.847,0,0,0,0,4.049,1.813,1.813,0,0,0,3.176,0,3.847,3.847,0,0,0,0-4.049Zm-.8,3.509a.866.866,0,0,1-1.584,0,2.892,2.892,0,0,1,0-2.969.866.866,0,0,1,1.584,0,2.892,2.892,0,0,1,0,2.969Z" transform="translate(-111.916 -35.905)" fill="#2c3e50"/>
      </g>
    </g>
    <g id="Group_466" data-name="Group 466" transform="translate(12.744 40.267)">
      <g id="Group_465" data-name="Group 465" transform="translate(0 0)">
        <path id="Path_1080" data-name="Path 1080" d="M400.931,173.138a1.652,1.652,0,0,0-.983-1.134,1.546,1.546,0,0,0-1.205.068,2.48,2.48,0,0,0-1.23,1.454,2.681,2.681,0,0,0-.067,1.623,1.652,1.652,0,0,0,.983,1.134,1.447,1.447,0,0,0,.51.092,1.641,1.641,0,0,0,.7-.16,2.48,2.48,0,0,0,1.23-1.454h0A2.681,2.681,0,0,0,400.931,173.138Zm-.975,1.306a1.543,1.543,0,0,1-.73.9.6.6,0,0,1-.459.039c-.417-.156-.579-.876-.347-1.54a1.543,1.543,0,0,1,.73-.9.689.689,0,0,1,.287-.069.487.487,0,0,1,.172.031C400.026,173.061,400.188,173.78,399.956,174.444Z" transform="translate(-397.35 -171.912)" fill="#2c3e50"/>
      </g>
    </g>
    <g id="Group_468" data-name="Group 468" transform="translate(0.001 40.267)">
      <g id="Group_467" data-name="Group 467" transform="translate(0 0)">
        <path id="Path_1081" data-name="Path 1081" d="M3.515,173.526a2.48,2.48,0,0,0-1.23-1.454A1.546,1.546,0,0,0,1.08,172,1.652,1.652,0,0,0,.1,173.137a2.681,2.681,0,0,0,.067,1.623h0a2.48,2.48,0,0,0,1.23,1.454,1.641,1.641,0,0,0,.7.16,1.447,1.447,0,0,0,.51-.092,1.652,1.652,0,0,0,.983-1.134A2.682,2.682,0,0,0,3.515,173.526ZM2.26,175.382a.6.6,0,0,1-.459-.039,1.543,1.543,0,0,1-.73-.9h0c-.232-.664-.07-1.383.347-1.54a.6.6,0,0,1,.459.039,1.543,1.543,0,0,1,.73.9C2.839,174.507,2.677,175.226,2.26,175.382Z" transform="translate(-0.001 -171.912)" fill="#2c3e50"/>
      </g>
    </g>
  </g>
</svg>
