<svg xmlns="http://www.w3.org/2000/svg" width="10.98" height="13.812" viewBox="0 0 10.98 13.812">
  <g id="Group_457" data-name="Group 457" transform="translate(-316.01 -411.594)">
    <path id="Path_917" data-name="Path 917" d="M10448.581,612.581a1.95,1.95,0,0,1,1.377-.571h1.417a.531.531,0,0,1,0,1.063h-1.417a.884.884,0,0,0-.885.885v8.5a.886.886,0,0,0,.885.886h7.084a.886.886,0,0,0,.885-.886v-8.5a.884.884,0,0,0-.885-.885h-1.417a.531.531,0,0,1,0-1.063h1.417a1.95,1.95,0,0,1,1.948,1.948v8.5a1.948,1.948,0,0,1-1.948,1.948h-7.084a1.948,1.948,0,0,1-1.948-1.948v-8.5A1.949,1.949,0,0,1,10448.581,612.581Z" transform="translate(-10132 -199)" fill="#2c3e50" fill-rule="evenodd"/>
    <path id="Path_918" data-name="Path 918" d="M10450.844,612.542a1.948,1.948,0,0,1,1.948-1.948h1.416a1.948,1.948,0,1,1,0,3.9h-1.416A1.949,1.949,0,0,1,10450.844,612.542Zm1.948-.886a.885.885,0,1,0,0,1.771h1.416a.885.885,0,1,0,0-1.771Z" transform="translate(-10132 -199)" fill="#2c3e50" fill-rule="evenodd"/>
    <path id="Path_919" data-name="Path 919" d="M10451.552,618.917a.532.532,0,0,1,.531-.532h2.834a.531.531,0,0,1,0,1.063h-2.834A.532.532,0,0,1,10451.552,618.917Z" transform="translate(-10132 -199)" fill="#2c3e50" fill-rule="evenodd"/>
    <path id="Path_920" data-name="Path 920" d="M10453.5,616.969a.532.532,0,0,1,.531.531v2.833a.531.531,0,1,1-1.062,0V617.5A.532.532,0,0,1,10453.5,616.969Z" transform="translate(-10132 -199)" fill="#2c3e50" fill-rule="evenodd"/>
  </g>
</svg>
