<svg xmlns="http://www.w3.org/2000/svg" width="13.813" height="13.812" viewBox="0 0 13.813 13.812">
  <g id="Group_452" data-name="Group 452" transform="translate(-365.594 -211.594)">
    <path id="Path_905" data-name="Path 905" d="M10499.671,417.933a3.365,3.365,0,1,1,1.287,6.473h-2.833a.532.532,0,0,1-.531-.531v-2.833a3.365,3.365,0,0,1,2.077-3.109Zm1.736.851a2.3,2.3,0,0,0-2.751,2.258v2.3h2.3a2.3,2.3,0,0,0,.449-4.56Z" transform="translate(-10132 -199)" fill="#2c3e50" fill-rule="evenodd"/>
    <path id="Path_906" data-name="Path 906" d="M10511.4,411.053a.53.53,0,0,1-.454.6,10.8,10.8,0,0,0-8.643,6.887.531.531,0,0,1-.994-.376,11.866,11.866,0,0,1,9.492-7.563A.53.53,0,0,1,10511.4,411.053Z" transform="translate(-10132 -199)" fill="#2c3e50" fill-rule="evenodd"/>
    <path id="Path_907" data-name="Path 907" d="M10510.947,410.6a.53.53,0,0,1,.454.6,11.868,11.868,0,0,1-7.563,9.492.531.531,0,0,1-.376-.994,10.8,10.8,0,0,0,6.887-8.642A.53.53,0,0,1,10510.947,410.6Z" transform="translate(-10132 -199)" fill="#2c3e50" fill-rule="evenodd"/>
    <path id="Path_908" data-name="Path 908" d="M10503.026,415.152a.531.531,0,0,1,.705-.259,6.909,6.909,0,0,1,3.376,3.376.531.531,0,1,1-.965.445,5.855,5.855,0,0,0-2.856-2.857A.53.53,0,0,1,10503.026,415.152Z" transform="translate(-10132 -199)" fill="#2c3e50" fill-rule="evenodd"/>
  </g>
</svg>
