<svg xmlns="http://www.w3.org/2000/svg" width="13.813" height="13.812" viewBox="0 0 13.813 13.812">
  <g id="Group_454" data-name="Group 454" transform="translate(-336.594 -312.594)">
    <path id="Path_935" data-name="Path 935" d="M10475.5,512.205l-.039-.041a1.952,1.952,0,0,0-1.378-.57h-4.25a1.24,1.24,0,0,0-1.239,1.239v9.917a1.24,1.24,0,0,0,1.239,1.24h4.25a.886.886,0,0,1,.886.885.531.531,0,0,0,1.063,0,.886.886,0,0,1,.886-.885h4.25a1.24,1.24,0,0,0,1.239-1.24v-9.917a1.24,1.24,0,0,0-1.239-1.239h-4.25a1.952,1.952,0,0,0-1.378.57Zm-5.667.451a.177.177,0,0,0-.177.177v9.917a.177.177,0,0,0,.177.177h4.25a1.948,1.948,0,0,1,1.378.571l.039.04.039-.04a1.948,1.948,0,0,1,1.378-.571h4.25a.177.177,0,0,0,.177-.177v-9.917a.177.177,0,0,0-.177-.177h-4.25a.887.887,0,0,0-.886.886.531.531,0,0,1-1.062,0,.887.887,0,0,0-.886-.886Z" transform="translate(-10132 -199)" fill="#2c3e50" fill-rule="evenodd"/>
    <path id="Path_936" data-name="Path 936" d="M10475.5,513.01a.532.532,0,0,1,.531.532v11.333a.531.531,0,0,1-1.062,0V513.542A.532.532,0,0,1,10475.5,513.01Z" transform="translate(-10132 -199)" fill="#2c3e50" fill-rule="evenodd"/>
    <path id="Path_937" data-name="Path 937" d="M10471.427,514.958a.532.532,0,0,1,.531-.531h.709a.531.531,0,0,1,0,1.063h-.709A.532.532,0,0,1,10471.427,514.958Z" transform="translate(-10132 -199)" fill="#2c3e50" fill-rule="evenodd"/>
    <path id="Path_938" data-name="Path 938" d="M10471.427,517.792a.532.532,0,0,1,.531-.532h.709a.531.531,0,0,1,0,1.063h-.709A.532.532,0,0,1,10471.427,517.792Z" transform="translate(-10132 -199)" fill="#2c3e50" fill-rule="evenodd"/>
    <path id="Path_939" data-name="Path 939" d="M10477.8,514.958a.532.532,0,0,1,.531-.531h.709a.531.531,0,0,1,0,1.063h-.709A.532.532,0,0,1,10477.8,514.958Z" transform="translate(-10132 -199)" fill="#2c3e50" fill-rule="evenodd"/>
    <path id="Path_940" data-name="Path 940" d="M10477.8,517.792a.532.532,0,0,1,.531-.532h.709a.531.531,0,0,1,0,1.063h-.709A.532.532,0,0,1,10477.8,517.792Z" transform="translate(-10132 -199)" fill="#2c3e50" fill-rule="evenodd"/>
    <path id="Path_941" data-name="Path 941" d="M10477.8,520.625a.532.532,0,0,1,.531-.531h.709a.531.531,0,1,1,0,1.062h-.709A.532.532,0,0,1,10477.8,520.625Z" transform="translate(-10132 -199)" fill="#2c3e50" fill-rule="evenodd"/>
  </g>
</svg>
