<svg xmlns="http://www.w3.org/2000/svg" width="13.813" height="13.812" viewBox="0 0 13.813 13.812">
  <g id="Group_456" data-name="Group 456" transform="translate(-356.594 -378.594)">
    <path id="Path_911" data-name="Path 911" d="M10492.49,587.156v2.3a.886.886,0,0,0,.885.886h4.25a.886.886,0,0,0,.885-.886v-2.3Zm-1.063-.531a.532.532,0,0,1,.531-.531h7.084a.532.532,0,0,1,.531.531v2.833a1.948,1.948,0,0,1-1.948,1.948h-4.25a1.948,1.948,0,0,1-1.948-1.948Z" transform="translate(-10132 -199)" fill="#2c3e50" fill-rule="evenodd"/>
    <path id="Path_912" data-name="Path 912" d="M10488.594,578.125a.532.532,0,0,1,.531-.531h2.125a4.781,4.781,0,0,1,4.781,4.781.531.531,0,0,1-1.062,0,3.718,3.718,0,0,0-3.719-3.719h-1.594v.886a3.718,3.718,0,0,0,3.719,3.718h2.125a.531.531,0,0,1,0,1.063h-2.125a4.781,4.781,0,0,1-4.781-4.781Z" transform="translate(-10132 -199)" fill="#2c3e50" fill-rule="evenodd"/>
    <path id="Path_913" data-name="Path 913" d="M10495.1,584.146a.531.531,0,0,0,.4.885h2.125a4.781,4.781,0,0,0,4.781-4.781v-.708a.532.532,0,0,0-.531-.532h-2.125a4.782,4.782,0,0,0-4.781,4.782A.529.529,0,0,0,10495.1,584.146Zm4.646-4.073a3.718,3.718,0,0,0-3.719,3.719.51.51,0,0,1-.03.177h1.624a3.718,3.718,0,0,0,3.719-3.719v-.177Z" transform="translate(-10132 -199)" fill="#2c3e50" fill-rule="evenodd"/>
    <path id="Path_914" data-name="Path 914" d="M10495.5,581.844a.532.532,0,0,1,.531.531v4.25a.531.531,0,0,1-1.062,0v-4.25A.532.532,0,0,1,10495.5,581.844Z" transform="translate(-10132 -199)" fill="#2c3e50" fill-rule="evenodd"/>
  </g>
</svg>
