<svg width="35" height="35" viewBox="0 0 35 35" fill="none" xmlns="http://www.w3.org/2000/svg">
<path d="M17.5 35C27.198 35 35 27.198 35 17.5C35 7.80203 27.198 0 17.5 0C7.80203 0 0 7.80203 0 17.5C0 27.198 7.80203 35 17.5 35Z" fill="#2775CA"/>
<path d="M22.3125 20.2708C22.3125 17.7187 20.7813 16.8437 17.7188 16.4792C15.5313 16.1875 15.0938 15.6042 15.0938 14.5833C15.0938 13.5623 15.823 12.9062 17.2813 12.9062C18.5938 12.9062 19.323 13.3437 19.6875 14.4375C19.7605 14.6562 19.9792 14.802 20.198 14.802H21.3645C21.6563 14.802 21.875 14.5833 21.875 14.2917V14.2187C21.5833 12.6145 20.2708 11.375 18.5938 11.2292V9.4792C18.5938 9.18748 18.375 8.96873 18.0105 8.89575H16.9167C16.625 8.89575 16.4063 9.1145 16.3333 9.4792V11.1562C14.1458 11.448 12.7605 12.9062 12.7605 14.7292C12.7605 17.1355 14.2188 18.0833 17.2813 18.448C19.323 18.8125 19.9792 19.25 19.9792 20.4167C19.9792 21.5834 18.9583 22.3855 17.573 22.3855C15.677 22.3855 15.0208 21.5833 14.802 20.4895C14.7292 20.198 14.5105 20.052 14.2917 20.052H13.052C12.7605 20.052 12.5417 20.2708 12.5417 20.5625V20.6355C12.8333 22.4583 14 23.7708 16.4063 24.1355V25.8855C16.4063 26.177 16.625 26.3958 16.9895 26.4687H18.0833C18.375 26.4687 18.5938 26.25 18.6667 25.8855V24.1355C20.8542 23.7708 22.3125 22.2395 22.3125 20.2708Z" fill="white"/>
<path d="M13.7812 27.927C8.09371 25.8855 5.17698 19.5417 7.29168 13.927C8.38543 10.8645 10.7917 8.53127 13.7812 7.43752C14.0729 7.29175 14.2187 7.073 14.2187 6.7083V5.68752C14.2187 5.3958 14.0729 5.17705 13.7812 5.10425C13.7082 5.10425 13.5625 5.10425 13.4895 5.17705C6.56246 7.36455 2.77073 14.7292 4.95823 21.6563C6.27073 25.7395 9.40621 28.875 13.4895 30.1875C13.7812 30.3333 14.0729 30.1875 14.1457 29.8958C14.2187 29.823 14.2187 29.75 14.2187 29.6042V28.5833C14.2187 28.3645 14 28.073 13.7812 27.927ZM21.5104 5.17705C21.2187 5.03127 20.927 5.17705 20.8542 5.46877C20.7812 5.54175 20.7812 5.61455 20.7812 5.7605V6.78127C20.7812 7.073 21 7.36455 21.2187 7.5105C26.9062 9.55205 29.8229 15.8958 27.7082 21.5105C26.6145 24.573 24.2082 26.9063 21.2187 28C20.927 28.1458 20.7812 28.3646 20.7812 28.7292V29.75C20.7812 30.0417 20.927 30.2605 21.2187 30.3333C21.2917 30.3333 21.4375 30.3333 21.5104 30.2605C28.4375 28.073 32.2292 20.7083 30.0417 13.7813C28.7292 9.62502 25.5207 6.48955 21.5104 5.17705Z" fill="white"/>
</svg>
